<svg xmlns="http://www.w3.org/2000/svg" width="40" height="40" viewBox="0 0 40 40">
  <g id="グループ_17" data-name="グループ 17" transform="translate(-264 -3680)">
    <circle id="楕円形_2" data-name="楕円形 2" cx="20" cy="20" r="20" transform="translate(264 3680)" fill="#868686"/>
    <path id="instagram-brands" d="M11.884,37.649a6.13,6.13,0,1,0,6.13,6.13A6.12,6.12,0,0,0,11.884,37.649Zm0,10.114a3.985,3.985,0,1,1,3.985-3.985,3.992,3.992,0,0,1-3.985,3.985ZM19.694,37.4a1.43,1.43,0,1,1-1.43-1.43A1.426,1.426,0,0,1,19.694,37.4Zm4.06,1.451a7.075,7.075,0,0,0-1.931-5.009,7.122,7.122,0,0,0-5.009-1.931c-1.974-.112-7.89-.112-9.864,0A7.111,7.111,0,0,0,1.94,33.835,7.1,7.1,0,0,0,.009,38.844c-.112,1.974-.112,7.89,0,9.864A7.075,7.075,0,0,0,1.94,53.717a7.131,7.131,0,0,0,5.009,1.931c1.974.112,7.89.112,9.864,0a7.075,7.075,0,0,0,5.009-1.931,7.122,7.122,0,0,0,1.931-5.009C23.866,46.734,23.866,40.823,23.754,38.849ZM21.2,50.826A4.034,4.034,0,0,1,18.931,53.1c-1.574.624-5.308.48-7.047.48s-5.479.139-7.047-.48a4.034,4.034,0,0,1-2.273-2.273c-.624-1.574-.48-5.308-.48-7.047s-.139-5.479.48-7.047a4.034,4.034,0,0,1,2.273-2.273c1.574-.624,5.308-.48,7.047-.48s5.479-.139,7.047.48A4.034,4.034,0,0,1,21.2,36.732c.624,1.574.48,5.308.48,7.047S21.828,49.257,21.2,50.826Z" transform="translate(271.889 3655.991)" fill="#fff"/>
  </g>
</svg>
