<svg xmlns="http://www.w3.org/2000/svg" width="40" height="40" viewBox="0 0 40 40">
  <g id="グループ_16" data-name="グループ 16" transform="translate(-115 -5123)">
    <circle id="楕円形_3" data-name="楕円形 3" cx="20" cy="20" r="20" transform="translate(115 5123)" fill="#868686"/>
    <path id="twitter-brands" d="M24.172,54.428c.017.239.017.478.017.718a15.59,15.59,0,0,1-15.7,15.7A15.572,15.572,0,0,1,.025,68.365a11.408,11.408,0,0,0,1.332.068,11.054,11.054,0,0,0,6.849-2.356,5.526,5.526,0,0,1-5.157-3.825,6.954,6.954,0,0,0,1.042.085,5.832,5.832,0,0,0,1.451-.188,5.5,5.5,0,0,1-4.423-5.367v-.068a5.555,5.555,0,0,0,2.493.7A5.524,5.524,0,0,1,1.9,50.037,15.67,15.67,0,0,0,13.28,55.809a6.227,6.227,0,0,1-.137-1.264,5.52,5.52,0,0,1,9.544-3.772,10.856,10.856,0,0,0,3.5-1.332,5.5,5.5,0,0,1-2.425,3.04,11.066,11.066,0,0,0,3.176-.854,11.848,11.848,0,0,1-2.766,2.852Z" transform="translate(121.975 5082.969)" fill="#fff"/>
  </g>
</svg>
