<svg xmlns="http://www.w3.org/2000/svg" width="38" height="29.827" viewBox="0 0 38 29.827">
  <g id="icon_mail" transform="translate(0 -55.062)">
    <path id="パス_1" data-name="パス 1" d="M37.9,59.308A5.256,5.256,0,0,0,36.814,57a4.531,4.531,0,0,0-.358-.4,5.26,5.26,0,0,0-3.727-1.545H5.271a5.267,5.267,0,0,0-3.727,1.545,4.629,4.629,0,0,0-.358.4A5.194,5.194,0,0,0,.1,59.308,5.1,5.1,0,0,0,0,60.333V79.618a5.241,5.241,0,0,0,.437,2.093,5.166,5.166,0,0,0,1.108,1.633c.118.118.235.226.363.334a5.266,5.266,0,0,0,3.364,1.211H32.729a5.233,5.233,0,0,0,3.364-1.216,4.553,4.553,0,0,0,.363-.329,5.275,5.275,0,0,0,1.113-1.633v0A5.215,5.215,0,0,0,38,79.618V60.333A5.417,5.417,0,0,0,37.9,59.308Zm-34.45-.794a2.546,2.546,0,0,1,1.819-.755H32.729a2.533,2.533,0,0,1,2.05,1.025L20.388,71.326a2.112,2.112,0,0,1-2.775,0L3.226,58.778A1.946,1.946,0,0,1,3.452,58.514ZM2.7,79.618V61.569l10.415,9.085L2.7,79.73A.77.77,0,0,1,2.7,79.618Zm30.032,2.574H5.271A2.539,2.539,0,0,1,4,81.854l10.983-9.571L16,73.175a4.563,4.563,0,0,0,6,0l1.025-.892L34,81.854A2.542,2.542,0,0,1,32.729,82.192ZM35.3,79.618a.8.8,0,0,1-.005.112L24.889,70.66,35.3,61.574Z" transform="translate(0 0)" fill="#fff"/>
  </g>
</svg>
